<?xml version="1.0" standalone="no"?><!DOCTYPE svg PUBLIC "-//W3C//DTD SVG 1.1//EN" "http://www.w3.org/Graphics/SVG/1.1/DTD/svg11.dtd"><svg t="1659334967574" class="icon" viewBox="0 0 1024 1024" version="1.1" xmlns="http://www.w3.org/2000/svg" p-id="2825" xmlns:xlink="http://www.w3.org/1999/xlink" width="64" height="64"><defs><style type="text/css">@font-face { font-family: feedback-iconfont; src: url("//at.alicdn.com/t/font_1031158_u69w8yhxdu.woff2?t=1630033759944") format("woff2"), url("//at.alicdn.com/t/font_1031158_u69w8yhxdu.woff?t=1630033759944") format("woff"), url("//at.alicdn.com/t/font_1031158_u69w8yhxdu.ttf?t=1630033759944") format("truetype"); }
</style></defs><path d="M840.07 113.39H191.63c-52.86 0-98.68 45.82-98.68 98.68v644.92c0 56.39 45.82 102.2 98.68 102.2h274.88v-70.48H191.63c-14.1 0-28.19-14.1-28.19-28.2V212.07c0-14.1 14.1-28.19 28.19-28.19h644.92c17.62 0 31.72 14.1 31.72 28.19v271.36h70.48V212.07c0-52.86-45.81-98.68-98.68-98.68z m0 0" fill="#ffffff" p-id="2826"></path><path d="M706.16 673.73l74.01-74.01c21.14-21.14 10.57-59.91-17.62-66.96l-267.84-70.48c-31.72-7.05-56.39 21.14-49.34 49.34l70.49 267.84c7.05 31.72 45.81 38.77 66.96 17.62l74.01-74.01 214.98 214.97c14.1 14.1 35.24 14.1 49.34 0 14.1-14.1 14.1-35.24 0-49.34L706.16 673.73z m0 0" fill="#ffffff" p-id="2827"></path></svg>