<?xml version="1.0" standalone="no"?><!DOCTYPE svg PUBLIC "-//W3C//DTD SVG 1.1//EN" "http://www.w3.org/Graphics/SVG/1.1/DTD/svg11.dtd"><svg t="1658804095503" class="icon" viewBox="0 0 1024 1024" version="1.1" xmlns="http://www.w3.org/2000/svg" p-id="1550" width="32" height="32" xmlns:xlink="http://www.w3.org/1999/xlink"><defs><style type="text/css">@font-face { font-family: feedback-iconfont; src: url("//at.alicdn.com/t/font_1031158_u69w8yhxdu.woff2?t=1630033759944") format("woff2"), url("//at.alicdn.com/t/font_1031158_u69w8yhxdu.woff?t=1630033759944") format("woff"), url("//at.alicdn.com/t/font_1031158_u69w8yhxdu.ttf?t=1630033759944") format("truetype"); }
</style></defs><path d="M885.333333 938.666667H138.666667a53.393333 53.393333 0 0 1-53.333334-53.333334V138.666667a53.393333 53.393333 0 0 1 53.333334-53.333334h746.666666a53.393333 53.393333 0 0 1 53.333334 53.333334v746.666666a53.393333 53.393333 0 0 1-53.333334 53.333334zM138.666667 128a10.666667 10.666667 0 0 0-10.666667 10.666667v746.666666a10.666667 10.666667 0 0 0 10.666667 10.666667h746.666666a10.666667 10.666667 0 0 0 10.666667-10.666667V138.666667a10.666667 10.666667 0 0 0-10.666667-10.666667z" fill="#13227a" p-id="1551"></path></svg>