<?xml version="1.0" standalone="no"?><!DOCTYPE svg PUBLIC "-//W3C//DTD SVG 1.1//EN" "http://www.w3.org/Graphics/SVG/1.1/DTD/svg11.dtd"><svg t="1659338929488" class="icon" viewBox="0 0 1024 1024" version="1.1" xmlns="http://www.w3.org/2000/svg" p-id="6525" xmlns:xlink="http://www.w3.org/1999/xlink" width="64" height="64"><defs><style type="text/css">@font-face { font-family: feedback-iconfont; src: url("//at.alicdn.com/t/font_1031158_u69w8yhxdu.woff2?t=1630033759944") format("woff2"), url("//at.alicdn.com/t/font_1031158_u69w8yhxdu.woff?t=1630033759944") format("woff"), url("//at.alicdn.com/t/font_1031158_u69w8yhxdu.ttf?t=1630033759944") format("truetype"); }
</style></defs><path d="M503.92 182.74c39.7 0 77.07 14.95 105.14 42.25 28.17 27.2 43.6 63.42 43.6 101.88 0 38.46-15.43 74.68-43.6 101.88-28.08 27.3-65.45 42.25-105.14 42.25-39.7 0-77.07-14.95-105.14-42.25-28.08-27.29-43.61-63.42-43.61-101.88 0-38.46 15.43-74.68 43.61-101.88 28.17-27.21 65.45-42.25 105.14-42.25m0-57.65c-114.99 0-208.24 90.35-208.24 201.78s93.25 201.78 208.24 201.78c115 0 208.25-90.35 208.25-201.78s-93.25-201.78-208.25-201.78z m0 0" p-id="6526" fill="#ffffff"></path><path d="M266.68 902.48c-0.55-9.28-0.74-18.55-0.74-27.92 0-48.83 6.97-96.03 20.82-140.44 13.11-41.97 31.7-79.54 55.22-111.43 44.72-60.63 102.26-94.05 161.94-94.05 59.69 0 117.23 33.42 161.95 94.05 23.52 31.88 42.11 69.45 55.22 111.43 13.85 44.41 20.82 91.61 20.82 140.44 0 9.37-0.28 18.64-0.74 27.92h59.59c0.46-9.19 0.74-18.55 0.74-27.92C801.5 651.7 668.28 471 504.01 471S206.43 651.7 206.43 874.56c0 9.37 0.28 18.73 0.74 27.92h59.51z m98.35-425.27c-9.67-8.38-18.5-17.56-26.4-27.57-13.57 25.49-41.09 42.97-72.7 42.97-45.09 0-81.81-35.58-81.81-79.27s36.72-79.27 81.81-79.27c10.69 0 20.82 1.98 30.21 5.58-0.28-4.23-0.47-8.47-0.47-12.79 0-8.37 0.56-16.67 1.58-24.77a123.34 123.34 0 0 0-31.33-4.05c-65.73 0-119 51.61-119 115.3 0 40 21.01 75.22 52.9 95.93-65.81 34.6-112.38 119.37-112.38 218.45h37.19c0-28.11 4.19-55.31 12.37-80.8 7.72-24.14 18.78-45.76 32.72-64.05 26.5-34.95 60.7-54.23 96.22-54.23 21.66 0 42.76 7.12 61.91 20.54 8.92-8.92 18.22-17.12 27.89-24.68-7.62-5.85-15.52-10.99-23.8-15.31a115.927 115.927 0 0 0 33.09-31.98z m0 0" p-id="6527" fill="#ffffff"></path><path d="M675.82 509.28c-8.28 4.32-16.18 9.46-23.8 15.32 9.67 7.57 18.96 15.76 27.89 24.68 19.24-13.51 40.35-20.63 62.01-20.63 35.52 0 69.72 19.28 96.22 54.14 13.94 18.38 24.92 39.91 32.72 64.05 8.18 25.49 12.37 52.7 12.37 80.8h37.19c0-99.09-46.58-183.86-112.4-218.44 31.89-20.72 52.9-55.94 52.9-95.93 0-63.69-53.27-115.31-119-115.31-10.88 0-21.29 1.44-31.33 4.05 1.03 8.11 1.59 16.39 1.59 24.77 0 4.32-0.19 8.56-0.47 12.79 9.3-3.6 19.52-5.58 30.21-5.58 45.09 0 81.81 35.58 81.81 79.27s-36.72 79.27-81.81 79.27c-31.61 0-59.12-17.47-72.7-42.97-7.9 10-16.74 19.19-26.4 27.57 8.74 12.78 19.98 23.68 33 32.15z m0 0" p-id="6528" fill="#ffffff"></path></svg>